<svg id="reddit" data-name="reddit" xmlns="http://www.w3.org/2000/svg" viewBox="0 0 40 40">
  <defs>
    <style>
      .cls-1 {
        fill: #fff;
      }
    </style>
  </defs>
  <g id="reddit" fill="#FFFFFF">
    <circle id="Oval-1-Copy-28" fill="#FFFFFF" cx="20" cy="20" r="20"></circle>
    <g id="Group-12" transform="translate(9.285714, 10.428571)" fill="#82B1CD">
      <path d="M14.5125,9 C13.7870667,9 13.2,9.58160058 13.2,10.2993751 C13.2,11.0166825 13.7870667,11.5989838 14.5125,11.5989838 C15.2372333,11.5989838 15.825,11.0166825 15.825,10.2993751 C15.825,9.58160058 15.2372333,9 14.5125,9" id="Fill-65"></path>
      <path d="M18.8633667,9.00196237 C18.4429,8.35028944 17.8745,7.75584226 17.1887333,7.24127757 C17.3996667,6.80145673 17.8521,6.49734269 18.375,6.49734269 C19.0981,6.49734269 19.6875,7.08011114 19.6875,7.7967178 C19.6875,8.34164718 19.3461333,8.80973054 18.8633667,9.00196237 M10.5,16.6491925 C6.28646667,16.6491925 2.87116667,14.4302344 2.87116667,11.6950767 C2.87116667,8.95921823 6.28646667,6.74096093 10.5,6.74096093 C14.7137667,6.74096093 18.1290667,8.95921823 18.1290667,11.6950767 C18.1290667,14.4302344 14.7137667,16.6491925 10.5,16.6491925 M1.3125,7.7967178 C1.3125,7.08011114 1.90166667,6.49734269 2.625,6.49734269 C3.14813333,6.49734269 3.60103333,6.80145673 3.81056667,7.24127757 C3.1255,7.75584226 2.5571,8.35028944 2.13686667,9.00196237 C1.6534,8.80973054 1.3125,8.34164718 1.3125,7.7967178 M17.7188667,1.21832475 C18.1265,1.21832475 18.4571333,1.54486194 18.4571333,1.94917945 C18.4571333,2.35279624 18.1265,2.68003415 17.7188667,2.68003415 C17.3112333,2.68003415 16.9806,2.35279624 16.9806,1.94917945 C16.9806,1.54486194 17.3112333,1.21832475 17.7188667,1.21832475 M18.375,5.19773401 C17.3889333,5.19773401 16.5293333,5.7370576 16.0813333,6.53378032 C14.7317333,5.80269204 13.0879,5.33110507 11.2973,5.22249291 L12.8636667,1.73942952 L15.8615333,2.59641447 C16.1315,3.3545974 16.8606667,3.8983589 17.7188667,3.8983589 C18.8064333,3.8983589 19.6875,3.02549088 19.6875,1.94917945 C19.6875,0.872167294 18.8064333,0 17.7188667,0 C16.9689333,0 16.3172333,0.41459479 15.9845,1.02539219 L12.6431667,0.0707730825 C12.2700667,-0.0359704776 11.8741,0.146217656 11.7152,0.497747323 L9.58813333,5.22926657 C7.84163333,5.3509589 6.23956667,5.81904226 4.91936667,6.53378032 C4.47136667,5.7370576 3.6113,5.19773401 2.625,5.19773401 C1.1753,5.19773401 0,6.36140232 0,7.7967178 C0,8.85854761 0.644,9.77135687 1.56636667,10.1742729 C1.40046667,10.6619766 1.3125,11.171169 1.3125,11.6950767 C1.3125,15.2827815 5.4257,18.1924194 10.5,18.1924194 C15.5738333,18.1924194 19.6875,15.2827815 19.6875,11.6950767 C19.6875,11.171169 19.5997667,10.6619766 19.4338667,10.1747401 C20.3553,9.77135687 21,8.85854761 21,7.7967178 C21,6.36140232 19.8247,5.19773401 18.375,5.19773401" id="Fill-66"></path>
      <path d="M8.025,10.2993751 C8.025,9.581367 7.43723333,9 6.7125,9 C5.98706667,9 5.4,9.581367 5.4,10.2993751 C5.4,11.0166825 5.98706667,11.5987502 6.7125,11.5987502 C7.43723333,11.5987502 8.025,11.0166825 8.025,10.2993751" id="Fill-67"></path>
      <path d="M13.2389654,13.3653803 C12.6973987,13.7879166 11.625232,14.2431533 10.5504987,14.2431533 C9.47576537,14.2431533 8.4035987,13.7879166 7.86203204,13.3653803 C7.5236987,13.1019082 7.03346537,13.1593675 6.76746537,13.4940798 C6.50076537,13.8285586 6.5590987,14.3139264 6.89626537,14.5771649 C7.83823204,15.3112897 9.27206537,15.7863803 10.5504987,15.7863803 C11.8284654,15.7863803 13.262532,15.3112897 14.204032,14.5771649 C14.5416654,14.3139264 14.600232,13.8285586 14.334232,13.4940798 C14.066832,13.1593675 13.5772987,13.1019082 13.2389654,13.3653803" id="Fill-68"></path>
    </g>
  </g>
</svg>
